<?xml version="1.0" encoding="utf-8"?>
<!-- Generator: Adobe Illustrator 18.1.0, SVG Export Plug-In . SVG Version: 6.00 Build 0)  -->
<svg version="1.1" xmlns="http://www.w3.org/2000/svg" xmlns:xlink="http://www.w3.org/1999/xlink" x="0px" y="0px"
	 viewBox="0 0 79.3 77" style="enable-background:new 0 0 79.3 77;" xml:space="preserve">
<g id="about">
</g>
<g id="services">
</g>
<g id="home">
	<circle style="fill:#6FDAE7;" cx="39.7" cy="38.5" r="37.8"/>
	<g>
		<g>
			<defs>
				<rect id="SVGID_11_" x="21.9" y="18.4" width="35.4" height="40.3"/>
			</defs>
			<clipPath id="SVGID_2_">
				<use xlink:href="#SVGID_11_"  style="overflow:visible;"/>
			</clipPath>
			<g style="clip-path:url(#SVGID_2_);">
				<defs>
					<rect id="SVGID_13_" x="21.7" y="17.7" width="35.8" height="41.6"/>
				</defs>
				<clipPath id="SVGID_4_">
					<use xlink:href="#SVGID_13_"  style="overflow:visible;"/>
				</clipPath>
				<path style="clip-path:url(#SVGID_4_);fill:#FF6666;" d="M22.6,36.7c-0.8,0.9-0.8,2-0.2,2.6c0.6,0.6,1.8,0.4,2.5-0.5l15.3-17.5
					c0.8-0.9,0.8-2,0.2-2.6c-0.6-0.6-1.8-0.4-2.5,0.5L22.6,36.7z"/>
				<path style="clip-path:url(#SVGID_4_);fill:#FF6666;" d="M54.4,38.6c0.7,0.8,1.9,1.1,2.5,0.5c0.6-0.6,0.6-1.7-0.2-2.6L41.7,19.2
					c-0.7-0.9-1.9-1.1-2.5-0.5c-0.7,0.6-0.6,1.8,0.2,2.6L54.4,38.6z"/>
				<path style="clip-path:url(#SVGID_4_);fill:#FF6666;" d="M48.4,26.3c0,0.8-0.6,1.5-1.4,1.5c-0.8,0-1.4-0.7-1.4-1.5v-4.9
					c0-0.8,0.6-1.5,1.4-1.5c0.8,0,1.4,0.7,1.4,1.5V26.3z"/>
				<path style="clip-path:url(#SVGID_4_);fill:#FFFFFF;" d="M39.9,24.4c-2.1,0-12.2,13.1-12.2,13.1v21.2h8.5v-8.5c0,0,3.5-3.6,7,0
					v8.5h8h0.7V37.4C51.9,37.4,42.1,24.4,39.9,24.4 M42.4,37.2c0,1.3-1.1,2.3-2.5,2.3c-1.4,0-2.5-1-2.5-2.3v-1.8
					c0-1.3,1.1-2.3,2.5-2.3c1.4,0,2.5,1,2.5,2.3V37.2z"/>
			</g>
		</g>
	</g>
</g>
<g id="contact">
</g>
</svg>
